<?xml version="1.0" encoding="UTF-8" standalone="no"?>
<!-- Created with Inkscape (http://www.inkscape.org/) -->
<svg
   xmlns:dc="http://purl.org/dc/elements/1.1/"
   xmlns:cc="http://web.resource.org/cc/"
   xmlns:rdf="http://www.w3.org/1999/02/22-rdf-syntax-ns#"
   xmlns:svg="http://www.w3.org/2000/svg"
   xmlns="http://www.w3.org/2000/svg"
   xmlns:sodipodi="http://inkscape.sourceforge.net/DTD/sodipodi-0.dtd"
   xmlns:inkscape="http://www.inkscape.org/namespaces/inkscape"
   width="320"
   height="320"
   id="svg2"
   sodipodi:version="0.32"
   inkscape:version="0.43"
   version="1.0"
   sodipodi:docbase="/tmp/wiki"
   sodipodi:docname="Image:Road sign merging.svg">
  <defs
     id="defs4" />
  <sodipodi:namedview
     id="base"
     pagecolor="#ffffff"
     bordercolor="#666666"
     borderopacity="1.0"
     inkscape:pageopacity="0.0"
     inkscape:pageshadow="2"
     inkscape:zoom="0.98994949"
     inkscape:cx="254.49239"
     inkscape:cy="214.77902"
     inkscape:document-units="px"
     inkscape:current-layer="layer1"
     inkscape:window-width="968"
     inkscape:window-height="662"
     inkscape:window-x="53"
     inkscape:window-y="158" />
  <metadata
     id="metadata7">
    <rdf:RDF>
      <cc:Work
         rdf:about="">
        <dc:format>image/svg+xml</dc:format>
        <dc:type
           rdf:resource="http://purl.org/dc/dcmitype/StillImage" />
        <dc:title>Merging Arrow</dc:title>
        <dc:date>25.07.2006</dc:date>
        <dc:creator>
          <cc:Agent>
            <dc:title>Sven K</dc:title>
          </cc:Agent>
        </dc:creator>
      </cc:Work>
    </rdf:RDF>
  </metadata>
  <g
     inkscape:label="Ebene 1"
     inkscape:groupmode="layer"
     id="layer1">
    <g
       id="g3106"
       transform="translate(-40.23272,-80.94982)">
      <rect
         rx="12.142854"
         ry="12.142854"
         transform="matrix(0.707107,0.707107,-0.707107,0.707107,0,0)"
         y="-86.268234"
         x="196.78441"
         height="230.11913"
         width="230.35732"
         id="rect1356"
         style="opacity:1;color:#000000;fill:#e8843a;fill-opacity:1;fill-rule:evenodd;stroke:none;stroke-width:1.875;stroke-linecap:butt;stroke-linejoin:miter;marker:none;marker-start:none;marker-mid:none;marker-end:none;stroke-miterlimit:4;stroke-dasharray:none;stroke-dashoffset:0;stroke-opacity:1;visibility:visible;display:inline;overflow:visible" />
      <rect
         style="opacity:1;color:#000000;fill:none;fill-opacity:1;fill-rule:evenodd;stroke:#282a2d;stroke-width:4.00000429;stroke-linecap:butt;stroke-linejoin:miter;marker:none;marker-start:none;marker-mid:none;marker-end:none;stroke-miterlimit:4;stroke-dasharray:none;stroke-dashoffset:0;stroke-opacity:1;visibility:visible;display:inline;overflow:visible"
         id="rect2231"
         width="222.47922"
         height="222.2431"
         x="200.72362"
         y="-82.330238"
         transform="matrix(0.707107,0.707107,-0.707107,0.707107,0,0)"
         ry="7.1428647"
         rx="7.1428647" />
      <path
         sodipodi:nodetypes="cssssssssssssscccssccccc"
         id="path1352"
         d="M 182.43287,264.37395 C 182.43287,207.12327 182.3357,203.78461 180.68287,204.24877 C 179.72037,204.51908 174.80019,205.99285 169.74913,207.52383 C 160.98808,210.17932 160.44728,210.23004 157.99913,208.62595 C 153.11142,205.4234 154.31003,202.02311 165.69433,186.79581 C 171.32553,179.26368 181.28431,165.85013 187.82496,156.9879 C 194.36562,148.12568 200.07565,141.23832 200.51393,141.68267 C 200.95221,142.12702 211.01326,155.71254 222.87183,171.87271 C 245.91688,203.27717 246.96204,205.2873 241.95221,208.56987 C 239.64026,210.08471 238.73909,210.04548 228.70221,207.99301 C 222.77907,206.78177 217.59537,205.58416 217.18287,205.33165 C 215.92456,204.56139 216.30689,206.81364 219.57016,219.39497 C 226.0843,244.50979 236.75532,267.30552 251.82625,288.30134 C 254.90989,292.59726 257.43287,296.48229 257.43287,296.93474 C 257.43287,297.38718 253.53748,300.58756 248.77645,304.04668 L 240.12002,310.33599 L 237.74379,307.41328 C 234.40667,303.30871 225.23401,289.37982 221.43374,282.64612 C 219.67826,279.53557 217.83491,276.99058 217.33741,276.99058 C 216.82315,276.99058 216.43287,287.34577 216.43287,300.99058 L 216.43287,324.99058 L 199.43287,324.99058 L 182.43287,324.99058 L 182.43287,264.37395 z "
         style="fill:#282a2d;fill-opacity:1" />
    </g>
  </g>
</svg>
